<?xml version="1.0" encoding="utf-8"?>
<!-- Generator: Adobe Illustrator 27.5.0, SVG Export Plug-In . SVG Version: 6.00 Build 0)  -->
<svg version="1.2" baseProfile="tiny-ps" id="Layer_1" xmlns="http://www.w3.org/2000/svg" xmlns:xlink="http://www.w3.org/1999/xlink"
	  viewBox="0 0 576 576" overflow="visible" xml:space="preserve"><title>Bellingcat</title>
<g>
	<g>
		<path fill="#FFFFFF" d="M0,576C0,384,0,192,0,0c192,0,384,0,576,0c0,192,0,384,0,576C384,576,192,576,0,576z M21.4,280.4
			c0.3,59.2,13.9,106.9,41.6,150.4c24.9,39.1,57.9,69.8,98.6,91.9c36.3,19.7,75.3,30.5,116.6,31.6c74.4,2,139.4-22.1,193.3-73.3
			c52.2-49.6,80.1-111.3,82.7-183.3c2.6-74.3-22-139.2-73.2-193.1c-49.7-52.3-111.3-80.2-183.4-82.7C223.7,19.2,159,43.6,105.2,94.3
			C49.9,146.6,22.6,211.8,21.4,280.4z"/>
		<path d="M21.4,280.4c1.2-68.6,28.4-133.7,83.8-186.1C159,43.6,223.7,19.2,297.6,21.8c72.1,2.5,133.8,30.4,183.4,82.7
			c51.2,53.9,75.8,118.9,73.2,193.1c-2.5,72-30.4,133.6-82.7,183.3c-53.9,51.3-118.9,75.4-193.3,73.3c-41.3-1.1-80.3-12-116.6-31.6
			c-40.7-22.1-73.7-52.7-98.6-91.9C35.3,387.3,21.7,339.5,21.4,280.4z M285.5,476.4c-7.5-0.8-14.7-1.4-21.9-2.2
			c-3-0.4-6.1-0.9-9-1.7c-7.7-2.1-15.3-4.4-22.1-8.7c-4.3-2.8-8.7-5.6-12.5-9c-7.6-6.9-13.1-15.2-16.7-25c-3.1-8.5-4.6-17.1-4.9-26
			c-0.2-5.7,0.3-11.4,0.6-17c0.5-9.1,3-17.8,6.3-26.2c3.3-8.4,8-15.9,13.5-23c6.6-8.5,14.6-15.7,22.7-22.7
			c8.6-7.5,17.3-14.8,25.7-22.4c6.4-5.8,12.6-11.7,18.1-18.5c6.9-8.5,11.1-18.1,13.1-28.8c2.1-11.3,1.9-22.8,2.4-34.2
			c0.3-5.8,0.2-11.6,0.1-17.4c0-0.4-0.7-1.1-1.1-1.1c-1.3-0.2-2.6-0.1-4-0.1c-6.3,0-12.6,0-18.9,0c-0.8,0-1.7-0.3-1.7,1.2
			c0.1,3.4,0.1,6.8,0.1,10.3c0,6.8,0.2,13.6-0.2,20.3c-0.3,5.5-1.2,11-2.2,16.5c-1.1,5.9-3.5,11.3-7,16.2
			c-4.7,6.6-10.4,12.2-16.3,17.7c-6.8,6.5-13.8,12.8-20.6,19.3c-5.8,5.5-11.5,11.1-17.2,16.6c-8.9,8.7-17.1,17.9-24,28.3
			c-6.7,10.2-11.4,21.3-14.2,33.1c-2.4,10.1-3.3,20.3-3.3,30.7c0,16.6,3.4,32.2,11.3,46.8c5.3,9.7,12.2,18.1,20.7,25.1
			c7.5,6.2,15.9,11,24.9,14.7c9.6,3.9,19.5,6.6,29.7,8.2c5.8,0.9,11.7,1.3,17.5,1.7c3.9,0.3,7.9,0.5,11.9,0.3
			c6.4-0.3,12.9-1,19.3-1.6c9.3-0.8,18.3-3.4,27-6.4c7.1-2.5,13.9-5.8,20.4-9.8c9.8-6,18.5-13.4,25.8-22.4
			c6.8-8.3,12.2-17.4,16.4-27.3c2.9-6.9,5.1-14.1,6.7-21.4c2.7-12,3.6-24.3,3.3-36.6c0-1.4-0.5-1.7-1.8-1.7
			c-7.4,0.1-14.9,0.1-22.3,0c-1.3,0-1.8,0.3-1.8,1.7c0.1,7.9-0.2,15.8-1.5,23.7c-1.1,7-2.7,13.7-5,20.4c-2.2,6.5-5,12.7-9,18.3
			c-3.7,5.2-7.5,10.4-11.9,15c-4.9,5.2-10.8,9.3-17,12.8c-8.6,4.9-17.7,8.2-27.4,9.9C300.4,475.2,292.8,475.6,285.5,476.4z
			 M320.4,109.4c0.5-17.7-14.1-32.6-32.3-32.9c-16.7-0.2-33.6,13.7-32.8,34.2c0.6,15.6,13.7,30.8,32.1,31.1
			C305.8,142.3,321,127,320.4,109.4z"/>
		<path fill="#FFFFFF" d="M285.5,476.4c7.3-0.8,14.9-1.2,22.3-2.4c9.7-1.7,18.8-5,27.4-9.9c6.2-3.6,12.1-7.6,17-12.8
			c4.3-4.7,8.2-9.8,11.9-15c4-5.6,6.7-11.9,9-18.3c2.3-6.6,3.9-13.4,5-20.4c1.2-7.9,1.5-15.7,1.5-23.7c0-1.4,0.5-1.7,1.8-1.7
			c7.4,0.1,14.9,0,22.3,0c1.3,0,1.7,0.3,1.8,1.7c0.3,12.3-0.6,24.6-3.3,36.6c-1.7,7.3-3.8,14.4-6.7,21.4c-4.2,9.9-9.6,19-16.4,27.3
			c-7.3,8.9-16,16.3-25.8,22.4c-6.5,4-13.3,7.3-20.4,9.8c-8.8,3-17.7,5.6-27,6.4c-6.4,0.5-12.9,1.2-19.3,1.6
			c-3.9,0.2-7.9,0-11.9-0.3c-5.9-0.4-11.7-0.8-17.5-1.7c-10.2-1.5-20.1-4.2-29.7-8.2c-9-3.7-17.4-8.5-24.9-14.7
			c-8.5-7-15.4-15.4-20.7-25.1c-7.9-14.6-11.4-30.3-11.3-46.8c0-10.4,0.9-20.6,3.3-30.7c2.8-11.9,7.5-22.9,14.2-33.1
			c6.9-10.4,15.1-19.7,24-28.3c5.7-5.5,11.4-11.1,17.2-16.6c6.8-6.5,13.8-12.8,20.6-19.3c5.8-5.5,11.6-11.2,16.3-17.7
			c3.5-4.9,6-10.3,7-16.2c1-5.5,1.9-11,2.2-16.5c0.4-6.8,0.2-13.5,0.2-20.3c0-3.4,0-6.8-0.1-10.3c0-1.4,0.9-1.1,1.7-1.2
			c6.3,0,12.6,0,18.9,0c1.3,0,2.6-0.1,4,0.1c0.4,0,1.1,0.7,1.1,1.1c0,5.8,0.1,11.6-0.1,17.4c-0.5,11.4-0.3,22.9-2.4,34.2
			c-2,10.7-6.2,20.3-13.1,28.8c-5.5,6.7-11.7,12.7-18.1,18.5c-8.5,7.6-17.2,14.9-25.7,22.4c-8.1,7.1-16,14.2-22.7,22.7
			c-5.5,7.1-10.2,14.7-13.5,23c-3.3,8.4-5.8,17.1-6.3,26.2c-0.3,5.7-0.8,11.4-0.6,17c0.3,8.9,1.8,17.5,4.9,26
			c3.6,9.8,9.1,18.1,16.7,25c3.8,3.4,8.2,6.2,12.5,9c6.8,4.3,14.4,6.6,22.1,8.7c2.9,0.8,6,1.3,9,1.7
			C270.8,475,278,475.6,285.5,476.4z"/>
		<path fill="#FFFFFF" d="M320.4,109.4c0.6,17.6-14.6,32.8-33,32.5c-18.5-0.4-31.5-15.5-32.1-31.1c-0.8-20.6,16.1-34.4,32.8-34.2
			C306.3,76.8,321,91.7,320.4,109.4z"/>
	</g>
</g>
</svg>
